<svg version="1.1" xmlns="http://www.w3.org/2000/svg" xmlns:xlink="http://www.w3.org/1999/xlink"
	 viewBox="0 0 30 30" xml:space="preserve">
	<filter id="blur">
		<feGaussianBlur in="SourceGraphic" stdDeviation="1" />
	</filter>
	<path filter="url(#blur)" opacity=".3" d="M16.8,3.1c0.6-0.7,1.7-0.6,2.2,0c0.5,0.6,0.5,1.5-0.1,2.1C15.5,8.6,12.1,12,8.7,15.5l10.3,10.3c0.8,0.7,0.8,1.9,0.2,2.5
		c-0.6,0.5-1.7,0.4-2.3-0.3C12.9,23.9,9,20.1,5.1,16.2c-0.2-0.2-0.4-0.5-0.4-0.8c0-0.3,0.3-0.6,0.5-0.8C9.3,10.8,13,6.9,16.8,3.1z"/>
	<path fill="#fff" d="M19.6,2.5c0.6-0.7,1.7-0.6,2.2,0c0.5,0.6,0.5,1.5-0.1,2.1c-3.4,3.4-6.8,6.8-10.3,10.3l10.3,10.3
		c0.8,0.7,0.8,1.9,0.2,2.5c-0.6,0.5-1.7,0.4-2.3-0.3c-3.9-3.9-7.8-7.7-11.7-11.7c-0.2-0.2-0.4-0.5-0.4-0.8c0-0.3,0.3-0.6,0.5-0.8
		C12.1,10.3,15.8,6.4,19.6,2.5z"/>
</svg>
