<svg version="1.1" xmlns="http://www.w3.org/2000/svg" xmlns:xlink="http://www.w3.org/1999/xlink"
	 viewBox="0 0 30 30" xml:space="preserve">
	<filter id="blur">
		<feGaussianBlur in="SourceGraphic" stdDeviation="1" />
	</filter>
	<path filter="url(#blur)" opacity=".3" d="M14.3,28.5c-0.6,0.7-1.7,0.6-2.2,0c-0.5-0.6-0.5-1.5,0.1-2.1c3.4-3.4,6.8-6.8,10.3-10.3L12.2,5.9C11.3,5.2,11.4,4,12,3.5
		C12.6,3,13.7,3,14.3,3.8c3.9,3.9,7.8,7.7,11.7,11.7c0.2,0.2,0.4,0.5,0.4,0.8c0,0.3-0.3,0.6-0.5,0.8C21.8,20.8,18.1,24.7,14.3,28.5z"
		/>
	<path fill="#fff" d="M11.4,27.5c-0.6,0.7-1.7,0.6-2.2,0c-0.5-0.6-0.5-1.5,0.1-2.1c3.4-3.4,6.8-6.8,10.3-10.3L9.2,4.8
		C8.4,4.1,8.4,2.9,9.1,2.4c0.6-0.5,1.7-0.4,2.3,0.3c3.9,3.9,7.8,7.7,11.7,11.7c0.2,0.2,0.4,0.5,0.4,0.8c0,0.3-0.3,0.6-0.5,0.8
		C18.9,19.7,15.2,23.6,11.4,27.5z"/>
</svg>
