<?xml version="1.0" encoding="utf-8"?>
<!-- Generator: Adobe Illustrator 19.1.0, SVG Export Plug-In . SVG Version: 6.00 Build 0)  -->
<svg version="1.1" id="Layer_1" xmlns="http://www.w3.org/2000/svg" xmlns:xlink="http://www.w3.org/1999/xlink" x="0px" y="0px"
	 viewBox="0 0 88 88" style="enable-background:new 0 0 88 88;" xml:space="preserve">
<style type="text/css">
	.st0{fill:#CCCCCC;}
</style>
<g>
	<path class="st0" d="M46,28.5c-1.1,0-2.9,0-4,0H29.7c-1.1,0-2,0.7-2,1.6c0,0.9,0,2.5,0,3.6v0.6c0,1.1,0.8,2,1.9,2
		c1,0,1.9-0.9,1.9-2v-0.6c0-1.1,0.9-2,2-2h6c1.1,0,2,0.9,2,2v20.7c0,1.1-0.9,2-2,2H37c-1.1,0-2,0.7-2,1.6c0,0.9,0.9,1.6,2,1.6h5
		c1.1,0,2.9,0,4,0h5c1.1,0,2-0.7,2-1.6c0-0.9-0.9-1.6-2-1.6h-2.4c-1.1,0-2-0.9-2-2V33.6c0-1.1,0.9-2,2-2h6c1.1,0,2,0.9,2,2v0.6
		c0,1.1,0.8,2,1.9,2s1.9-0.9,1.9-2v-0.6c0-1.1,0-2.7,0-3.6c0-0.9-0.9-1.6-2-1.6H46z"/>
</g>
</svg>
