<svg xmlns="http://www.w3.org/2000/svg" viewBox="0 0 88 88" enable-background="new 0 0 88 88"><style type="text/css">.st0{stroke:#000000;stroke-miterlimit:10;}</style><path class="st0" d="M42.8 43.3l-11.2 11 3 3 6.1-6v19.2h4.2v-19.2l6.2 6 3-3-11.3-11zM78 52.6c-.4-6.8-4.8-13.7-12.3-13.7-.7 0-1.4.1-2.1.2-2.4-3.2-5.9-5.3-9.8-5.7-2.6-7-8.7-11.9-15.9-11.9-7.9 0-14.6 6-16.6 14.1-.1.4-1.6.7-1.9.8-.9.4-1.8.9-2.6 1.5-5.9 4.4-6.9 11.8-7 18.7h16.4v-3.8h-11.9c0-1-.1-4.8 2.7-8.3 2.6-3.3 6.1-4.2 7.1-4.5 1.9-7 5.3-14.2 14.8-14.2 6.2 0 11.4 6.2 13.6 12.3 3.4.3 6.4 2.2 8.5 4.9.5-.1 1.1-.2 1.8-.2.4 0 5.9 0 8.9 4.4 1.5 2.2 1.7 4.4 1.7 5.6h-14.200000000000001v3.8h18.700000000000003c.3 0 .2-2.2.1-4z"/></svg>